<?xml version="1.0" encoding="UTF-8"?>
<!DOCTYPE svg PUBLIC "-//W3C//DTD SVG 1.1//EN" "http://www.w3.org/Graphics/SVG/1.1/DTD/svg11.dtd">
<!-- Creator: CorelDRAW -->
<svg xmlns="http://www.w3.org/2000/svg" xml:space="preserve" width="120mm" height="140mm" version="1.1" style="shape-rendering:geometricPrecision; text-rendering:geometricPrecision; image-rendering:optimizeQuality; fill-rule:evenodd; clip-rule:evenodd"
viewBox="0 0 120000 140000"
 xmlns:xlink="http://www.w3.org/1999/xlink"
 xmlns:xodm="http://www.corel.com/coreldraw/odm/2003">
 <defs>
  <style type="text/css">
   <![CDATA[
    .str0 {stroke:#373435;stroke-width:100;stroke-miterlimit:22.9256}
    .fil0 {fill:black}
    .fil1 {fill:#FFCC00}
   ]]>
  </style>
 </defs>
 <g id="Camada_x0020_1">
  <metadata id="CorelCorpID_0Corel-Layer"/>
  <polygon class="fil0 str0" points="30802.8,105855.5 30802.8,120583.4 33687.8,120583.4 33687.8,124259.5 26009.8,124259.5 26009.8,105855.5 "/>
  <polygon class="fil0 str0" points="39543.9,105855.5 39543.9,124259.5 34750.9,124259.5 34750.9,105855.5 "/>
  <polygon class="fil0 str0" points="50980,105855.5 50980,109531.7 48164.8,109531.7 48164.8,124259.5 43371.8,124259.5 43371.8,109531.7 40533.3,109531.7 40533.3,105855.5 "/>
  <polygon class="fil0 str0" points="51965.5,105855.5 59946,105855.5 59946,109531.7 56758.5,109531.7 56758.5,113045 59736.6,113045 59736.6,116535 56758.5,116535 56758.5,120583.4 60271.7,120583.4 60271.7,124259.5 51965.5,124259.5 "/>
  <path class="fil1 str0" d="M76586.2 112649.4l-4793 0 0 -1671.3c0,-1054.8 -42.6,-1714 -131.8,-1977.7 -89.2,-267.5 -302.5,-399.4 -636,-399.4 -286.9,0 -484.7,112.5 -589.4,341.3 -104.7,224.9 -155.1,810.4 -155.1,1748.8l0 8825.9c0,822.1 50.4,1368.8 155.1,1628.6 104.7,259.9 310.2,391.7 620.4,391.7 341.3,0 570.1,-147.4 694.2,-442.1 120.2,-294.7 182.2,-872.5 182.2,-1729.5l0 -2179.3 -930.7 0 0 -2792 5584.1 0 0 9865.1 -3013.1 0 -442.1 -1318.4c-325.7,570 -736.7,996.5 -1229.2,1283.5 -496.4,287 -1081.9,430.4 -1752.8,430.4 -802.7,0 -1551.1,-193.9 -2253,-585.5 -698,-391.7 -1229.2,-872.5 -1589.9,-1450.3 -364.5,-573.9 -589.4,-1178.8 -682.4,-1810.9 -89.2,-632.1 -135.8,-1582.2 -135.8,-2846.3l0 -5467.7c0,-1756.6 93.1,-3032.4 283.1,-3827.4 190,-798.8 732.9,-1527.8 1628.7,-2190.9 895.7,-663.1 2055.2,-992.7 3478.4,-992.7 1399.8,0 2559.3,286.9 3482.2,864.7 922.9,577.8 1527.8,1260.3 1807,2051.4 279.3,794.9 418.9,1942.7 418.9,3455.1l0 794.9z"/>
  <path class="fil1 str0" d="M88538 105855.5l-3490 11742 0 6662 -4420.6 0 0 -6662 -3373.7 -11742 4393.5 0c678.6,3602.5 1070.3,6022.2 1167.2,7263.1 275.4,-1962.1 717.4,-4381.9 1334,-7263.1l4389.6 0z"/>
  <path class="fil1 str0" d="M103999.3 105855.5l0 18404 -4188 0 -11.6 -12424.4 -1663.6 12424.4 -2931.6 0 -1756.6 -12145.2 -11.7 12145.2 -4188 0 0 -18404 6185.1 0c174.5,1113 364.5,2423.7 570,3920.5l678.6 4672.7 1089.7 -8593.2 6227.7 0z"/>
  <polygon class="fil0 str0" points="91062.3,11283.8 35905.8,11283.8 32911.6,11283.8 32862.3,11283.8 32862.3,51881.6 35905.8,51881.6 35905.8,14651.1 88370,14651.1 88370,22335 91413.5,22335 91413.5,11399 91062.3,11399 "/>
  <path class="fil0 str0" d="M30359.5 56527.9c-1636.3,2711.1 -3665.1,5498.3 -4874,8332.2 -524.9,2042.2 -423.8,4141.2 -635.7,6211.8 -448.6,2295.7 -895.3,8946.3 893.8,13798.1 579.6,1573.2 1392.8,2737.9 2493.2,3399.9 1001.4,737.3 2362.3,887.2 4079.8,453.3 1362.3,-362.8 2846.6,-1457.5 4306.5,-2039.9 3788,-1183.1 7009.8,-4145.8 9886.7,-8192.2 1937.8,2287.8 3429.8,4399.2 4619.4,7285.5 397.3,752.4 241.6,3699.6 36.8,5615.7 -296.9,2657.8 -810,5518.4 -1711.7,7340.7l-13401.3 0 0 -6540.3 -3043.5 0 0 6540.3 0 3367.3 3043.5 0 55474.7 0 0 -4.1 0 -3363.2 0 -35119.7 -3043.5 0 0 35119.7 -13632.9 0c-363.9,-2967.7 -890.6,-6339.5 -1849.6,-9216.5 -489.3,-2700.5 -170.7,-5070.3 1133.3,-7253.1 939.9,-2186.2 1343.6,-4631.3 2135.2,-6847.3 1117.3,-2274 2019.9,-4547.7 2365.5,-6821.7 -58,-4111.4 1662.8,-6166.6 4452.2,-6616.9 3629.1,-358.9 6581.9,-1511.2 8874.5,-3439.1 2783.1,-2245.3 5536.8,-5184.1 8124.9,-8347.1 420,-4366.7 -2556.8,-10414.6 -5871.9,-14399.9l-3024.4 -4456.3c-453.2,-952.5 -1209.3,-1770.7 -2212.9,-2478.7 -1702.1,-1189.9 -3287.4,-2429.7 -4665.6,-3758.3 -1066.5,-639.9 -2497.9,-753.9 -3239.9,-388.8 -524.7,43.1 -1701,2610.3 -2355.7,4520.6 -67,1017.8 553.1,1747.6 1837.3,1311.3 752.8,-87 1747.3,197.5 2721.5,648 1309,212.6 2434.6,-27.6 3165.5,191.4 1682.4,1695.3 2887.4,4204.1 3230.7,7852.2 86.7,1653.8 -187.3,5252.4 731.7,8285.7 -152.6,1013.4 -1805.1,1069.4 -3313.6,604.1 -2125.1,-655.5 -3629.7,1137.8 -6569.6,3109.1 -2081.2,1395.5 -7467.3,-2407.2 -12116,3842.7 -407,547.3 -1024.5,379.1 -1228.2,304.1 -973.2,-358.8 -1220.8,-120.3 -2437.1,-299.5 -863.7,-86.2 -1798.8,-394.7 -2667.8,-769.2 -434.9,-492.7 -172.9,-985.1 792.8,-1477.7 412.6,-416.5 454.8,-935.1 129.6,-1555.2 -647.5,-1316.5 -1361.1,-3177.2 -1665,-5724.3 -83.1,-696.4 -973.1,-1302.8 -1317.9,-1676.7 -621.1,-182 -761.1,-656.5 -639.4,-1235.5 -13,-402.4 -1971.5,-2630.3 -3539.7,-4195.1 -1580.6,-1099.6 -3948.3,-1582.2 -5965,-1114.4 -2148.3,632.9 -3944.8,1855.6 -5375.1,3670.8 -486.4,1082 -864.5,2290.6 -983.2,3801.9 -68.7,2681.1 1050.1,4549.6 3310.3,5637.2 1469.3,773.9 2704,1584.3 3736.3,2425.4 2101.1,2177.6 2919.6,4066.7 2032,5571.7 -818.5,912.9 -1863.7,1927.4 -3146.4,3048 -6867.7,-136 -10537.1,3088.4 -11502.5,9154 -2344.4,1353.8 -3845.5,3257.7 -4471.3,5732.4 -1938.8,-2189.1 -3304.2,-4505.6 -3898.1,-6993.6 -669.2,-2847 112.1,-4716.9 1719.8,-5503.2 863.5,-386.6 1816.9,-1030.9 2407.6,-1949 471.5,-588.5 1182,-1137.3 1729,-1957.6 343.3,-514.8 -22.9,-1438.3 -929.6,-2011.7 -1309.5,-828.2 -3575.3,-2098.1 -4136,-1429.3z"/>
  <polygon class="fil0 str0" points="16450.5,105855.5 24431,105855.5 24431,109531.7 21243.5,109531.7 21243.5,113045 24221.6,113045 24221.6,116535 21243.5,116535 21243.5,120583.4 24756.7,120583.4 24756.7,124259.5 16450.5,124259.5 "/>
 </g>
</svg>
